# xmcd
#
# Track frame offsets: 
#        150
#        14013
#        30199
#        40089
#        50112
#        62220
#        74875
#        85689
#
# Disc length: 1321 seconds
#
# Revision: 2
# Processed by: cddbd v1.5.2PL0 Copyright (c) Steve Scherf et al.
# Submitted via: ExactAudioCopy v1.0b1
#
DISCID=6c052708
DTITLE=David Allan Coe - Truckin' Outlaw
DYEAR=1996
DGENRE=Country
TTITLE0=The Ride
TTITLE1=Willie, Waylon And Me
TTITLE2=Frankie and Johnnie
TTITLE3=Truck Drivin' Man
TTITLE4=Ride 'em Cowboy
TTITLE5=Tennessee Whiskey
TTITLE6=Mama Tried
TTITLE7=White Line Fever
EXTD=
EXTT0=
EXTT1=
EXTT2=
EXTT3=
EXTT4=
EXTT5=
EXTT6=
EXTT7=
PLAYORDER=
